<svg width="111" height="36" viewBox="0 0 111 36" fill="none" xmlns="http://www.w3.org/2000/svg">
<path d="M26.0117 19.0998C20.6869 19.0998 16.3555 14.8161 16.3555 9.54992C16.3555 4.2838 20.6869 0 26.0117 0C31.3364 0 35.9794 3.99535 35.1548 11.8146H21.4799C22.3186 13.4491 24.0345 14.5716 26.0105 14.5716C27.149 14.5716 28.2242 14.2079 29.1191 13.5209L31.9267 17.0993C30.2213 18.4083 28.1751 19.0998 26.0117 19.0998ZM21.4799 7.28523H30.5411C29.7024 5.65072 27.9865 4.52822 26.0105 4.52822C24.0345 4.52938 22.3186 5.65188 21.4799 7.28523Z" fill="black"/>
<path d="M9.55963 15.8575C14.8844 15.8575 19.2158 20.1412 19.2158 25.4074C19.2158 30.6735 14.8844 34.9573 9.55963 34.9573C4.23491 34.9573 -0.408118 30.9619 0.416476 23.1427H14.0914C13.2527 21.5082 11.5368 20.3857 9.56081 20.3857C8.4223 20.3857 7.34705 20.7494 6.45218 21.4363L3.64458 17.858C5.34882 16.5502 7.39507 15.8575 9.55963 15.8575ZM14.0902 27.6721H5.02905C5.8677 29.3066 7.58365 30.4291 9.55963 30.4291C11.5356 30.4291 13.2516 29.3066 14.0902 27.6721Z" fill="black"/>
<path d="M32.7032 32.5281H21.0769V27.9987H28.1234V21.0298H32.7032V32.5281Z" fill="#0F7BDE"/>
<path d="M7.03315 14.1094H2.45337V2.61102H14.0797V7.13924H7.03315V14.1094Z" fill="#0F7BDE"/>
<path d="M76.0238 8.40776C76.654 8.98812 77.4446 9.28236 78.3723 9.28236C79.3 9.28236 80.0906 8.98812 80.7207 8.40776C81.3556 7.82392 81.6777 7.08949 81.6777 6.22648C81.6777 5.36346 81.3556 4.62903 80.7207 4.04519C80.0906 3.46483 79.3 3.17175 78.3723 3.17175C77.4446 3.17175 76.654 3.46599 76.0238 4.04519C75.389 4.62903 75.0669 5.36346 75.0669 6.22648C75.0669 7.08949 75.389 7.82392 76.0238 8.40776ZM76.7524 4.71939C77.1916 4.30352 77.7222 4.1008 78.3735 4.1008C79.0247 4.1008 79.5553 4.30352 79.9945 4.71939C80.4314 5.13294 80.6434 5.62642 80.6434 6.22763C80.6434 6.82885 80.4314 7.32117 79.9945 7.73588C79.5553 8.15175 79.0247 8.35447 78.3735 8.35447C77.7222 8.35447 77.1916 8.15175 76.7524 7.73588C76.3155 7.32233 76.1035 6.82885 76.1035 6.22763C76.1035 5.62642 76.3155 5.13294 76.7524 4.71939Z" fill="black"/>
<path d="M76.5709 17.4236H73.6789V15.0327H72.6716V20.878H73.6789V18.3538H76.5709V20.878H77.5782V15.0327H76.5709V17.4236Z" fill="black"/>
<path d="M72.1353 4.22012H74.7356V3.28992H71.1292V9.1364H72.1353V4.22012Z" fill="black"/>
<path d="M66.7461 19.0547V15.0327H65.7388V20.878H66.123L69.9273 16.8827V20.878H70.9347V14.9412H70.6629L66.7461 19.0547Z" fill="black"/>
<path d="M100.741 15.0327V20.878H101.748V18.3538H104.641V20.878H105.647V15.0327H104.641V17.4236H101.748V15.0327H100.741Z" fill="black"/>
<path d="M107.394 20.878H108.4V15.9617H111V15.0327H107.394V20.878Z" fill="black"/>
<path d="M94.8149 19.0315V15.0327H93.8076V20.878H94.4179L97.9962 16.9047V20.878H99.0035V14.9412H98.4998L94.8149 19.0315Z" fill="black"/>
<path d="M44.1059 20.878L47.9102 16.8827V20.878H48.9164V14.9412H48.6458L44.7278 19.0547V15.0327H43.7217V20.878H44.1059Z" fill="black"/>
<path d="M55.5614 20.878V15.0327H54.554V17.4236H51.6609V15.0327H50.6548V20.878H51.6609V18.3538H54.554V20.878H55.5614Z" fill="black"/>
<path d="M61.9132 17.8488L64.8813 15.0327H63.5086L61.1531 17.3171V15.0327H60.1469V17.3171L57.7914 15.0327H56.4187L59.3868 17.8488L56.1868 20.878H57.5888L60.0755 18.4871L60.1469 18.5519V20.878H61.1531V18.5519L61.2245 18.4871L63.7112 20.878H65.1132L61.9132 17.8488Z" fill="black"/>
<path d="M89.3603 14.9122C88.5263 14.9122 87.8235 15.1613 87.2637 15.6536V15.0315H86.2563V24.0532H87.2637V20.2838C87.4206 20.4344 87.676 20.5896 88.0414 20.7587C88.4244 20.9348 88.859 21.024 89.331 21.024C90.2645 21.024 91.0247 20.7217 91.5893 20.1262C92.1503 19.5343 92.4349 18.7906 92.4349 17.9148C92.4349 17.0553 92.1515 16.3324 91.5939 15.7671C91.0341 15.1995 90.2833 14.9122 89.3603 14.9122ZM90.8467 19.4891C90.4812 19.8969 89.9811 20.095 89.3169 20.095C88.654 20.095 88.1538 19.8946 87.7884 19.4833C87.4159 19.0628 87.2355 18.5415 87.2355 17.8893C87.2355 17.2383 87.4358 16.7472 87.8493 16.388C88.2698 16.0208 88.7547 15.8436 89.3322 15.8436C89.9167 15.8436 90.3992 16.0231 90.8045 16.3915C91.2051 16.7564 91.3995 17.2545 91.3995 17.916C91.3995 18.5589 91.218 19.0732 90.8467 19.4891Z" fill="black"/>
<path d="M51.3774 26.6539C50.5434 26.6539 49.8406 26.9029 49.2808 27.3953V26.7732H48.2734V35.7949H49.2808V32.0254C49.4377 32.176 49.6931 32.3312 50.0585 32.5004C50.4415 32.6764 50.8761 32.7656 51.3481 32.7656C52.2816 32.7656 53.0418 32.4633 53.6064 31.8679C54.1674 31.2759 54.452 30.5322 54.452 29.6565C54.452 28.7969 54.1686 28.0741 53.611 27.5088C53.0512 26.9423 52.2992 26.6539 51.3774 26.6539ZM52.8626 31.2307C52.4971 31.6385 51.997 31.8366 51.3329 31.8366C50.6699 31.8366 50.1698 31.6362 49.8043 31.2249C49.4319 30.8044 49.2515 30.2832 49.2515 29.631C49.2515 28.98 49.4518 28.4888 49.8652 28.1297C50.2857 27.7625 50.7706 27.5852 51.3481 27.5852C51.9326 27.5852 52.4151 27.7648 52.8204 28.1332C53.221 28.4981 53.4154 28.9962 53.4154 29.6576C53.4154 30.3005 53.2351 30.8149 52.8626 31.2307Z" fill="black"/>
<path d="M62.0938 32.6196H63.0999V27.7034H66.3303V32.6196H67.3376V26.7743H62.0938V32.6196Z" fill="black"/>
<path d="M58.1032 31.3141L55.7781 26.7743H54.6338L57.5456 32.5038L56.0042 35.796H57.1427L61.2657 26.7743H60.1283L58.1032 31.3141Z" fill="black"/>
<path d="M64.5605 8.54213C64.7175 8.69272 64.9728 8.84795 65.3383 9.01708C65.7213 9.19316 66.1559 9.28235 66.6279 9.28235C67.5614 9.28235 68.3216 8.98001 68.8862 8.38459C69.4472 7.79264 69.7318 7.04894 69.7318 6.17319C69.7318 5.31365 69.4484 4.5908 68.8908 4.0255C68.331 3.45788 67.5802 3.17059 66.6572 3.17059C65.8232 3.17059 65.1204 3.41965 64.5605 3.91197V3.28991H63.5532V12.3116H64.5605V8.54213ZM65.145 4.64525C65.5655 4.27803 66.0504 4.1008 66.6279 4.1008C67.2124 4.1008 67.6949 4.28035 68.1002 4.64872C68.5008 5.01362 68.6952 5.51174 68.6952 6.17319C68.6952 6.8161 68.5149 7.33159 68.1424 7.7463C67.7769 8.15406 67.2768 8.35215 66.6127 8.35215C65.9497 8.35215 65.4496 8.15175 65.0841 7.74051C64.7116 7.32001 64.5313 6.79873 64.5313 6.14654C64.5313 5.49552 64.7316 5.00435 65.145 4.64525Z" fill="black"/>
<path d="M69.0828 32.6196H70.0901V27.7034H73.3205V32.6196H74.3267V26.7743H69.0828V32.6196Z" fill="black"/>
<path d="M80.3309 15.0327H79.3247V20.8781H79.7089L83.5133 16.8827V20.8781H83.7007H84.5194V14.6551L80.3309 19.0547V15.0327Z" fill="black"/>
<path d="M50.8011 6.61107H53.6942V9.1364H54.7015V3.28992H53.6942V5.68203H50.8011V3.28992H49.7949V9.1364H50.8011V6.61107Z" fill="black"/>
<path d="M59.2403 9.28235C59.9372 9.28235 60.5229 9.11902 60.982 8.79814C61.4295 8.48421 61.7762 8.11468 62.0128 7.69881L62.1194 7.51115L61.2444 7.03736L61.1437 7.23197C60.9692 7.56791 60.7173 7.84245 60.3952 8.04749C60.0755 8.25021 59.7018 8.35331 59.2837 8.35331C58.6793 8.35331 58.1733 8.16102 57.7387 7.76484C57.3604 7.42079 57.1683 7.00377 57.1542 6.49175H62.1908L62.1979 6.28671C62.2283 5.37968 61.9507 4.62555 61.3709 4.04403C60.7923 3.46483 60.0602 3.17059 59.1958 3.17059C58.3642 3.17059 57.638 3.44398 57.0371 3.98264C56.4292 4.52709 56.1223 5.28585 56.1223 6.23922C56.1223 7.10686 56.4046 7.83782 56.9621 8.41239C57.5208 8.98928 58.288 9.28235 59.2403 9.28235ZM57.8523 4.58385C58.2189 4.25834 58.6594 4.09964 59.197 4.09964C59.7241 4.09964 60.1574 4.25602 60.5194 4.5769C60.8227 4.84565 61.0207 5.17001 61.1179 5.56155H57.2468C57.3463 5.17811 57.5454 4.85608 57.8523 4.58385Z" fill="black"/>
<path d="M45.0336 9.28235C46.0175 9.28235 46.8292 9.00434 47.4441 8.45757C48.0754 7.89574 48.3964 7.13582 48.3964 6.19983C48.3964 5.23372 48.0391 4.45758 47.3352 3.89576C46.7402 3.41386 45.9507 3.17059 44.9891 3.17059C44.4573 3.17059 43.9326 3.25979 43.4301 3.43471L43.2872 3.48452V4.50624L43.5964 4.3568C43.9501 4.18652 44.4187 4.09964 44.9902 4.09964C45.5794 4.09964 46.0842 4.23517 46.486 4.50045C46.9346 4.80858 47.2099 5.19665 47.3223 5.68202H43.9091V6.61107H47.341C47.279 7.05126 47.0974 7.41268 46.7882 7.71039C46.3548 8.14248 45.7809 8.35215 45.0336 8.35215C44.4456 8.35215 43.9431 8.2479 43.5437 8.04402L43.231 7.88416V8.92788L43.3563 8.98464C43.7967 9.18157 44.3613 9.28235 45.0336 9.28235Z" fill="black"/>
<path d="M43.7217 32.6196H44.7278V27.7034H47.3281V26.7743H43.7217V32.6196Z" fill="black"/>
</svg>
