<svg width="269" height="87" fill="none" xmlns="http://www.w3.org/2000/svg"><path d="M62.441 46.421c-12.941 0-23.469-10.411-23.469-23.21C38.972 10.41 49.5 0 62.442 0c12.94 0 24.225 9.71 22.221 28.715H51.427a12.368 12.368 0 0 0 11.011 6.7c2.767 0 5.38-.884 7.556-2.553l6.823 8.697C72.672 44.74 67.7 46.42 62.441 46.42ZM51.427 17.706H73.45a12.368 12.368 0 0 0-11.012-6.7 12.378 12.378 0 0 0-11.011 6.7ZM22.455 38.54c12.942 0 23.47 10.412 23.47 23.211 0 12.8-10.528 23.21-23.47 23.21-12.941 0-24.226-9.71-22.222-28.714H33.47a12.368 12.368 0 0 0-11.01-6.7c-2.768 0-5.381.883-7.556 2.553l-6.824-8.697c4.142-3.179 9.116-4.862 14.376-4.862Zm11.012 28.715H11.444a12.368 12.368 0 0 0 11.011 6.701c4.803 0 8.973-2.728 11.012-6.7Z" fill="#000"/><path d="M78.705 79.058H50.448V68.049h17.126V51.112h11.13v27.946ZM16.315 34.292H5.184V6.346h28.257v11.006H16.315v16.94Z" fill="#0F7BDE"/><path d="M183.993 20.434c1.531 1.411 3.453 2.126 5.707 2.126 2.255 0 4.177-.715 5.708-2.125 1.543-1.42 2.326-3.204 2.326-5.302 0-2.097-.783-3.882-2.326-5.301-1.531-1.411-3.453-2.123-5.708-2.123-2.254 0-4.176.715-5.707 2.123-1.543 1.418-2.326 3.204-2.326 5.301 0 2.098.783 3.883 2.326 5.302Zm1.77-8.964c1.068-1.01 2.357-1.503 3.94-1.503 1.583 0 2.873.492 3.94 1.503 1.062 1.005 1.577 2.205 1.577 3.666 0 1.461-.515 2.658-1.577 3.666-1.067 1.01-2.357 1.503-3.94 1.503-1.583 0-2.872-.493-3.94-1.503-1.062-1.006-1.577-2.205-1.577-3.666 0-1.461.515-2.66 1.577-3.666ZM185.322 42.347h-7.029v-5.811h-2.448v14.207h2.448v-6.135h7.029v6.135h2.448V36.536h-2.448v5.811ZM174.541 10.257h6.32V7.996h-8.765v14.21h2.445v-11.95ZM161.443 46.311v-9.775h-2.448v14.207h.934l9.246-9.71v9.71h2.448v-14.43h-.66l-9.52 9.998ZM244.065 36.536v14.207h2.448v-6.135h7.032v6.135h2.445V36.536h-2.445v5.811h-7.032v-5.811h-2.448ZM260.235 50.743h2.445V38.794H269v-2.258h-8.765v14.207ZM229.663 46.255v-9.719h-2.448v14.207h1.483l8.697-9.657v9.657h2.448v-14.43h-1.224l-8.956 9.942ZM106.418 50.743l9.246-9.71v9.71h2.446v-14.43h-.658l-9.522 9.998v-9.775h-2.446v14.207h.934ZM134.26 50.743V36.536h-2.449v5.811h-7.031v-5.811h-2.446v14.207h2.446v-6.135h7.031v6.135h2.449ZM149.698 43.38l7.213-6.844h-3.336l-5.725 5.552v-5.552h-2.445v5.552l-5.725-5.552h-3.337l7.214 6.844-7.777 7.363h3.407l6.044-5.811.174.157v5.654h2.445v-5.654l.174-.157 6.043 5.81h3.408l-7.777-7.362ZM216.406 36.243c-2.027 0-3.735.605-5.096 1.802v-1.512h-2.448V58.46h2.448v-9.162c.382.366 1.002.744 1.891 1.155.93.428 1.987.644 3.134.644 2.269 0 4.116-.734 5.488-2.181 1.364-1.44 2.056-3.247 2.056-5.375 0-2.09-.689-3.846-2.044-5.22-1.361-1.38-3.186-2.078-5.429-2.078Zm3.613 11.124c-.889.991-2.104 1.473-3.718 1.473-1.612 0-2.827-.488-3.715-1.487-.906-1.022-1.344-2.289-1.344-3.874 0-1.582.487-2.776 1.492-3.649 1.022-.892 2.2-1.323 3.604-1.323 1.42 0 2.593.436 3.578 1.332.974.886 1.446 2.097 1.446 3.705 0 1.562-.441 2.812-1.343 3.823ZM124.091 64.78c-2.027 0-3.735.606-5.096 1.802v-1.511h-2.448v21.926h2.448v-9.161c.382.366 1.002.743 1.89 1.154.931.428 1.987.645 3.135.645 2.269 0 4.116-.735 5.488-2.182 1.364-1.439 2.056-3.246 2.056-5.375 0-2.089-.689-3.846-2.044-5.22-1.361-1.376-3.189-2.078-5.429-2.078Zm3.61 11.124c-.889.991-2.104 1.473-3.718 1.473-1.612 0-2.827-.487-3.715-1.487-.906-1.022-1.344-2.289-1.344-3.874 0-1.582.487-2.776 1.492-3.649 1.022-.892 2.2-1.323 3.604-1.323 1.42 0 2.593.437 3.578 1.332.974.887 1.446 2.097 1.446 3.705 0 1.563-.438 2.813-1.343 3.823ZM150.136 79.28h2.445V67.331h7.852v11.95h2.448V65.072h-12.745V79.28ZM140.437 76.107l-5.651-11.034h-2.781L139.082 79 135.336 87h2.767l10.02-21.927h-2.764l-4.922 11.034ZM156.131 20.761c.382.366 1.002.743 1.891 1.154.93.428 1.987.645 3.134.645 2.269 0 4.116-.735 5.488-2.182 1.364-1.439 2.056-3.246 2.056-5.374 0-2.09-.689-3.846-2.044-5.22-1.361-1.38-3.186-2.078-5.429-2.078-2.027 0-3.735.605-5.096 1.802V7.996h-2.448v21.926h2.448v-9.16Zm1.421-9.471c1.022-.893 2.2-1.323 3.604-1.323 1.42 0 2.593.436 3.578 1.331.974.887 1.446 2.098 1.446 3.706 0 1.562-.438 2.815-1.343 3.823-.888.99-2.104 1.472-3.718 1.472-1.611 0-2.827-.487-3.715-1.486-.905-1.022-1.344-2.29-1.344-3.874 0-1.582.487-2.776 1.492-3.65ZM167.123 79.28h2.448V67.331h7.851v11.95h2.446V65.072h-12.745V79.28ZM194.46 36.536h-2.445v14.207h.934l9.246-9.71v9.71h2.445V35.618l-10.18 10.693v-9.775ZM122.69 16.068h7.032v6.137h2.448V7.995h-2.448v5.815h-7.032V7.996h-2.445v14.21h2.445v-6.138ZM143.201 22.56c1.694 0 3.117-.397 4.233-1.177 1.088-.763 1.931-1.66 2.506-2.672l.259-.456-2.127-1.151-.245.473a5.12 5.12 0 0 1-1.819 1.982c-.777.493-1.685.743-2.701.743-1.469 0-2.699-.467-3.755-1.43-.92-.836-1.387-1.85-1.421-3.094h12.241l.017-.499c.074-2.204-.6-4.037-2.009-5.45-1.407-1.408-3.186-2.123-5.287-2.123-2.021 0-3.786.664-5.247 1.974-1.477 1.323-2.223 3.167-2.223 5.484 0 2.109.686 3.885 2.041 5.282 1.358 1.402 3.223 2.114 5.537 2.114Zm-3.373-11.42c.891-.79 1.961-1.176 3.268-1.176 1.281 0 2.334.38 3.214 1.16a4.6 4.6 0 0 1 1.455 2.393h-9.409c.242-.932.726-1.715 1.472-2.376ZM108.673 22.56c2.391 0 4.364-.676 5.858-2.005 1.535-1.365 2.315-3.212 2.315-5.487 0-2.348-.868-4.234-2.579-5.6-1.446-1.17-3.365-1.762-5.702-1.762-1.293 0-2.568.217-3.789.642l-.348.12v2.484l.752-.363c.86-.414 1.998-.625 3.387-.625 1.432 0 2.659.33 3.636.974 1.09.749 1.759 1.692 2.032 2.872h-8.295v2.258h8.341c-.151 1.07-.592 1.948-1.344 2.672-1.053 1.05-2.448 1.56-4.264 1.56-1.429 0-2.651-.254-3.621-.75l-.76-.388v2.537l.304.138c1.071.478 2.443.723 4.077.723ZM105.484 79.28h2.446V67.331h6.32v-2.258h-8.766V79.28Z" fill="#000"/></svg>