<svg width="111" height="36" fill="none" xmlns="http://www.w3.org/2000/svg"><path d="M26.012 19.1c-5.325 0-9.657-4.284-9.657-9.55 0-5.266 4.332-9.55 9.657-9.55 5.324 0 9.967 3.995 9.143 11.815H21.48a5.089 5.089 0 0 0 4.53 2.757 5.061 5.061 0 0 0 3.11-1.051l2.807 3.578a9.632 9.632 0 0 1-5.915 2ZM21.48 7.285h9.061a5.089 5.089 0 0 0-4.53-2.757 5.093 5.093 0 0 0-4.531 2.757ZM9.56 15.857c5.324 0 9.656 4.284 9.656 9.55 0 5.267-4.332 9.55-9.656 9.55-5.325 0-9.968-3.995-9.144-11.814h13.675a5.089 5.089 0 0 0-4.53-2.757 5.062 5.062 0 0 0-3.109 1.05l-2.807-3.578a9.635 9.635 0 0 1 5.915-2Zm4.53 11.815H5.03a5.089 5.089 0 0 0 4.53 2.757 5.089 5.089 0 0 0 4.53-2.757Z" fill="#000"/><path d="M32.703 32.528H21.077v-4.53h7.046V21.03h4.58v11.498ZM7.033 14.11h-4.58V2.61H14.08v4.528H7.033v6.97Z" fill="#0F7BDE"/><path d="M76.024 8.408c.63.58 1.42.874 2.348.874.928 0 1.719-.294 2.349-.874a2.857 2.857 0 0 0 .957-2.182c0-.863-.322-1.597-.957-2.18-.63-.581-1.421-.874-2.349-.874-.927 0-1.718.294-2.348.873a2.857 2.857 0 0 0-.957 2.181c0 .863.322 1.598.957 2.182Zm.728-3.689c.44-.415.97-.618 1.622-.618.65 0 1.181.203 1.62.618.437.414.65.907.65 1.509a1.98 1.98 0 0 1-.65 1.508c-.439.416-.97.618-1.62.618-.652 0-1.182-.202-1.622-.618a1.979 1.979 0 0 1-.648-1.508c0-.602.212-1.095.648-1.509ZM76.57 17.424H73.68v-2.391h-1.007v5.845h1.007v-2.524h2.892v2.524h1.007v-5.845h-1.007v2.39ZM72.135 4.22h2.6v-.93H71.13v5.846h1.006V4.22ZM66.746 19.055v-4.022H65.74v5.845h.384l3.804-3.995v3.995h1.008v-5.937h-.272l-3.917 4.114ZM100.741 15.033v5.845h1.007v-2.524h2.893v2.524h1.006v-5.845h-1.006v2.39h-2.893v-2.39h-1.007ZM107.394 20.878h1.006v-4.916h2.6v-.93h-3.606v5.846ZM94.815 19.032v-4h-1.007v5.846h.61l3.578-3.973v3.973h1.008v-5.937H98.5l-3.685 4.09ZM44.106 20.878l3.804-3.995v3.995h1.006v-5.937h-.27l-3.918 4.114v-4.022h-1.006v5.845h.384ZM55.561 20.878v-5.845h-1.007v2.39h-2.893v-2.39h-1.006v5.845h1.006v-2.524h2.893v2.524h1.007ZM61.913 17.849l2.968-2.816H63.51l-2.356 2.284v-2.284h-1.006v2.284l-2.356-2.284H56.42l2.968 2.816-3.2 3.029h1.402l2.486-2.39.072.064v2.326h1.006v-2.326l.072-.065 2.486 2.391h1.402l-3.2-3.03ZM89.36 14.912c-.834 0-1.537.25-2.096.742v-.623h-1.008v9.022h1.008v-3.77c.157.151.412.307.777.476.383.176.818.265 1.29.265.933 0 1.694-.302 2.258-.898.561-.592.846-1.335.846-2.211 0-.86-.284-1.583-.841-2.148-.56-.567-1.31-.855-2.234-.855Zm1.487 4.577c-.366.408-.866.606-1.53.606-.663 0-1.163-.2-1.529-.612-.372-.42-.552-.942-.552-1.594 0-.65.2-1.142.613-1.501a2.16 2.16 0 0 1 1.483-.544c.585 0 1.067.18 1.473.548.4.364.594.863.594 1.524 0 .643-.181 1.157-.552 1.573ZM51.377 26.654c-.834 0-1.536.249-2.096.741v-.622h-1.008v9.022h1.008v-3.77c.157.151.412.306.778.475a3.07 3.07 0 0 0 1.29.266c.933 0 1.693-.303 2.257-.898.561-.592.846-1.336.846-2.211 0-.86-.283-1.583-.841-2.148-.56-.567-1.312-.855-2.234-.855Zm1.486 4.577c-.366.407-.866.606-1.53.606-.663 0-1.163-.2-1.529-.612-.372-.42-.553-.942-.553-1.594 0-.651.2-1.142.614-1.501a2.16 2.16 0 0 1 1.483-.545c.585 0 1.067.18 1.472.548.401.365.595.863.595 1.525 0 .642-.18 1.157-.552 1.573ZM62.094 32.62H63.1v-4.917h3.23v4.917h1.008v-5.846h-5.244v5.846ZM58.103 31.314l-2.325-4.54h-1.144l2.912 5.73-1.542 3.292h1.139l4.123-9.022h-1.138l-2.025 4.54ZM64.56 8.542c.157.15.413.306.778.475.383.176.818.265 1.29.265.933 0 1.694-.302 2.258-.897.561-.592.846-1.336.846-2.212 0-.86-.284-1.582-.841-2.147-.56-.568-1.31-.855-2.234-.855-.834 0-1.537.249-2.096.741V3.29h-1.008v9.022h1.008v-3.77Zm.585-3.897a2.16 2.16 0 0 1 1.483-.544c.584 0 1.067.18 1.472.548.4.365.595.863.595 1.524 0 .643-.18 1.159-.553 1.573-.365.408-.865.606-1.53.606-.662 0-1.162-.2-1.528-.611-.372-.421-.553-.942-.553-1.594 0-.651.2-1.143.614-1.502ZM69.083 32.62h1.007v-4.917h3.23v4.917h1.007v-5.846h-5.244v5.846ZM80.33 15.033h-1.005v5.845h.384l3.804-3.995v3.995h1.006v-6.223l-4.188 4.4v-4.022ZM50.801 6.611h2.893v2.525h1.008V3.29h-1.008v2.392h-2.893V3.29h-1.006v5.846H50.8V6.611ZM59.24 9.282c.697 0 1.283-.163 1.742-.484a3.424 3.424 0 0 0 1.03-1.1l.107-.187-.875-.474-.1.195a2.04 2.04 0 0 1-1.86 1.121c-.605 0-1.11-.192-1.545-.588a1.706 1.706 0 0 1-.585-1.273h5.037l.007-.205c.03-.907-.247-1.661-.827-2.243-.579-.58-1.31-.873-2.175-.873-.832 0-1.558.273-2.159.812-.608.544-.915 1.303-.915 2.256 0 .868.283 1.599.84 2.173.559.577 1.326.87 2.278.87Zm-1.388-4.698c.367-.326.807-.484 1.345-.484.527 0 .96.156 1.322.477.304.269.502.593.599.985h-3.871c.1-.384.298-.706.605-.978ZM45.034 9.282c.983 0 1.795-.278 2.41-.824.631-.562.952-1.322.952-2.258 0-.966-.357-1.742-1.06-2.304-.596-.482-1.385-.725-2.347-.725-.532 0-1.056.089-1.559.264l-.143.05v1.021l.31-.15c.353-.17.822-.256 1.393-.256.59 0 1.094.135 1.496.4.449.309.724.697.836 1.182H43.91v.93h3.432c-.062.44-.244.8-.553 1.098-.433.432-1.007.642-1.754.642-.588 0-1.09-.104-1.49-.308l-.313-.16v1.044l.125.057c.44.197 1.005.297 1.678.297ZM43.722 32.62h1.006v-4.917h2.6v-.929h-3.606v5.846Z" fill="#000"/></svg>